<svg xmlns="http://www.w3.org/2000/svg" width="147.175" height="36.938" viewBox="0 0 147.175 36.938">
  <g id="Group_633" data-name="Group 633" transform="translate(-180.935 -53.531)">
    <path id="Path_504" data-name="Path 504" d="M40.318,0H31.154V-36.469h9.164ZM63.51,0,61.752-3.516h-.187A10.437,10.437,0,0,1,57.791-.375a12.464,12.464,0,0,1-4.969.844,7.794,7.794,0,0,1-5.906-2.25A8.777,8.777,0,0,1,44.76-8.109a7.2,7.2,0,0,1,2.953-6.316q2.953-2.074,8.555-2.332L60.7-16.9v-.375q0-3.281-3.234-3.281a19.343,19.343,0,0,0-7.383,1.969l-2.648-6.047a25.473,25.473,0,0,1,11.719-2.391q5.109,0,7.91,2.531a9.053,9.053,0,0,1,2.8,7.078V0Zm-6.8-6a4.133,4.133,0,0,0,2.848-1.055A3.5,3.5,0,0,0,60.745-9.8v-2.062l-2.109.094q-4.523.164-4.523,3.328Q54.112-6,56.713-6ZM83.386.469a7.945,7.945,0,0,1-4.957-1.617,10.256,10.256,0,0,1-3.281-4.758,21.138,21.138,0,0,1-1.16-7.336q0-6.469,2.6-10.125a8.3,8.3,0,0,1,7.148-3.656,8.2,8.2,0,0,1,3.9.891,8.623,8.623,0,0,1,3.059,3h.188a44.03,44.03,0,0,1-.445-6.234v-7.1h9.234V0H92.761L90.792-3.352h-.352A7.766,7.766,0,0,1,83.386.469Zm3.75-7.242a3.424,3.424,0,0,0,3.105-1.383,8.332,8.332,0,0,0,.973-4.266v-.727q0-3.516-1.008-5a3.55,3.55,0,0,0-3.164-1.488,3.1,3.1,0,0,0-2.8,1.7,9.66,9.66,0,0,0-1,4.84,8.985,8.985,0,0,0,1.008,4.711A3.207,3.207,0,0,0,87.136-6.773Zm42.787-6.562q0,6.516-3.5,10.16T116.61.469a12.707,12.707,0,0,1-9.621-3.727q-3.574-3.727-3.574-10.078,0-6.492,3.5-10.09t9.832-3.6a14.017,14.017,0,0,1,6.914,1.664,11.36,11.36,0,0,1,4.629,4.77A15.4,15.4,0,0,1,129.923-13.336Zm-17.2,0a11.793,11.793,0,0,0,.914,5.215,3.177,3.177,0,0,0,3.07,1.793,3.087,3.087,0,0,0,3.012-1.793,12.208,12.208,0,0,0,.879-5.215,11.591,11.591,0,0,0-.891-5.133,3.145,3.145,0,0,0-3.047-1.734,3.158,3.158,0,0,0-3.023,1.723A11.319,11.319,0,0,0,112.72-13.336Z" transform="translate(177 90)" fill="#333"/>
    <path id="Path_505" data-name="Path 505" d="M1.188-.828a1.164,1.164,0,0,1,.238-.793.864.864,0,0,1,.684-.27.924.924,0,0,1,.707.27,1.116,1.116,0,0,1,.254.793,1.1,1.1,0,0,1-.258.781.92.92,0,0,1-.7.273.926.926,0,0,1-.66-.246A1.07,1.07,0,0,1,1.188-.828ZM9.617-8.7a3.183,3.183,0,0,1,2.621,1.152,5.058,5.058,0,0,1,.934,3.262,5.1,5.1,0,0,1-.941,3.277A3.17,3.17,0,0,1,9.617.156,3.706,3.706,0,0,1,8.09-.152,2.872,2.872,0,0,1,6.93-1.1H6.836L6.563,0h-.93V-12.156h1.3V-9.2q0,.992-.062,1.781H6.93A3.079,3.079,0,0,1,9.617-8.7ZM9.43-7.617a2.264,2.264,0,0,0-1.914.762A4.3,4.3,0,0,0,6.93-4.289a4.285,4.285,0,0,0,.6,2.582,2.288,2.288,0,0,0,1.93.777A2,2,0,0,0,11.242-1.8a4.477,4.477,0,0,0,.586-2.5A4.3,4.3,0,0,0,11.242-6.8,2.076,2.076,0,0,0,9.43-7.617Zm4.648-.945h1.391L17.344-3.68a18.573,18.573,0,0,1,.766,2.414h.063q.1-.4.426-1.363t2.121-5.934h1.391l-3.68,9.75a4.864,4.864,0,0,1-1.277,2.051,2.716,2.716,0,0,1-1.793.605,5.217,5.217,0,0,1-1.172-.133V2.672a4.52,4.52,0,0,0,.961.094,1.981,1.981,0,0,0,1.906-1.5L17.531.047Z" transform="translate(306 66)" fill="#e2244b"/>
    <path id="Path_506" data-name="Path 506" d="M25.55,0H3.935V-36.407H25.55v7.894H13.771v5.728H24.678v7.894H13.771v6.873H25.55Z" transform="translate(177 90)" fill="#e2244b"/>
  </g>
</svg>
