<svg xmlns="http://www.w3.org/2000/svg" width="52.5" height="52.494" viewBox="0 0 52.5 52.494">
  <g id="like" transform="translate(0 -0.029)">
    <g id="Group_651" data-name="Group 651" transform="translate(-0.001 0.029)">
      <g id="Group_650" data-name="Group 650" transform="translate(0 0)">
        <path id="Path_501" data-name="Path 501" d="M51.86,26.147a4.255,4.255,0,0,0-.641-5.286l-2.047-2.016a2.222,2.222,0,0,1-.658-1.743l.205-2.88a4.252,4.252,0,0,0-3.03-4.4l-2.71-.817a2.22,2.22,0,0,1-1.4-1.245L40.446,5.145A4.3,4.3,0,0,0,35.7,2.651l-2.75.54a2.219,2.219,0,0,1-1.826-.452L28.935.971a4.3,4.3,0,0,0-5.371,0L21.375,2.738a2.221,2.221,0,0,1-1.826.452l-2.75-.54a4.3,4.3,0,0,0-4.746,2.494L10.918,7.763a2.221,2.221,0,0,1-1.4,1.245l-2.71.817a4.252,4.252,0,0,0-3.03,4.4l.205,2.88a2.222,2.222,0,0,1-.658,1.743L1.28,20.861a4.255,4.255,0,0,0-.641,5.286l1.513,2.459a2.222,2.222,0,0,1,.223,1.847L1.49,33.207a4.254,4.254,0,0,0,1.887,4.985L5.83,39.648a2.221,2.221,0,0,1,1.057,1.539l.483,2.832a4.25,4.25,0,0,0,4,3.551l2.81.14a2.22,2.22,0,0,1,1.661.876l1.713,2.254a4.3,4.3,0,0,0,3.418,1.683,4.235,4.235,0,0,0,1.794-.4l2.54-1.186a2.22,2.22,0,0,1,1.883,0l2.539,1.186a4.3,4.3,0,0,0,5.213-1.287l1.712-2.253a2.22,2.22,0,0,1,1.661-.876l2.81-.14a4.25,4.25,0,0,0,4-3.552l.483-2.832a2.221,2.221,0,0,1,1.057-1.539l2.453-1.456a4.254,4.254,0,0,0,1.887-4.985l-.885-2.754a2.222,2.222,0,0,1,.223-1.847ZM48.6,27.532a4.27,4.27,0,0,0-.429,3.549l.885,2.754a2.214,2.214,0,0,1-.982,2.594l-2.453,1.456a4.268,4.268,0,0,0-2.032,2.958l-.483,2.832a2.211,2.211,0,0,1-2.083,1.848l-2.81.14a4.266,4.266,0,0,0-3.192,1.683L33.311,49.6a2.238,2.238,0,0,1-2.713.67l-2.539-1.186a4.265,4.265,0,0,0-3.618,0L21.9,50.268a2.237,2.237,0,0,1-2.713-.67l-1.713-2.254a4.266,4.266,0,0,0-3.191-1.683l-2.81-.14a2.211,2.211,0,0,1-2.083-1.848l-.483-2.832a4.268,4.268,0,0,0-2.032-2.958L4.424,36.429a2.214,2.214,0,0,1-.982-2.594l.885-2.754A4.27,4.27,0,0,0,3.9,27.532L2.385,25.072a2.215,2.215,0,0,1,.333-2.751l2.047-2.016a4.27,4.27,0,0,0,1.264-3.349l-.205-2.88A2.213,2.213,0,0,1,7.4,11.788l2.71-.817A4.267,4.267,0,0,0,12.8,8.579l1.135-2.618a2.241,2.241,0,0,1,2.048-1.339,2.187,2.187,0,0,1,.422.041l2.75.54a4.265,4.265,0,0,0,3.509-.869l2.189-1.767a2.237,2.237,0,0,1,2.8,0l2.189,1.767a4.266,4.266,0,0,0,3.509.869l2.75-.54a2.238,2.238,0,0,1,2.47,1.3L39.7,8.578a4.266,4.266,0,0,0,2.689,2.393l2.71.817a2.213,2.213,0,0,1,1.577,2.288l-.205,2.88a4.269,4.269,0,0,0,1.264,3.349l2.047,2.016a2.214,2.214,0,0,1,.333,2.751Z" transform="translate(0.001 -0.029)" fill="#333"/>
      </g>
    </g>
    <g id="Group_653" data-name="Group 653" transform="translate(13.754 33.03)">
      <g id="Group_652" data-name="Group 652">
        <path id="Path_502" data-name="Path 502" d="M135.167,321.87a1.027,1.027,0,1,0,1.025,1.03v-.009A1.021,1.021,0,0,0,135.167,321.87Z" transform="translate(-134.142 -321.87)" fill="#333"/>
      </g>
    </g>
    <g id="Group_655" data-name="Group 655" transform="translate(9.778 11.052)">
      <g id="Group_654" data-name="Group 654">
        <path id="Path_503" data-name="Path 503" d="M128.309,123.707a3.156,3.156,0,0,0-2.031-2.945,3.149,3.149,0,0,0-2.866-4.458h-6.6a3.15,3.15,0,0,0-.539.047l.4-2.138a5.566,5.566,0,0,0-3.857-6.355l-.922-.28a1.025,1.025,0,0,0-1.262.632l-1.79,4.947a5.725,5.725,0,0,1-2.648,3.082l-1.358.739a2.043,2.043,0,0,0-1.516-.675h-5.9a2.053,2.053,0,0,0-2.05,2.05v14.955a2.053,2.053,0,0,0,2.05,2.05h5.9a2.053,2.053,0,0,0,2.036-1.819l.294.213a8.394,8.394,0,0,0,4.953,1.605h11.77a3.149,3.149,0,0,0,2.72-4.739,3.145,3.145,0,0,0,1.185-3.97A3.156,3.156,0,0,0,128.309,123.707Zm-24.99,9.6h-5.9V118.355h1.926v8.256a1.025,1.025,0,1,0,2.05,0v-8.256h1.886a1.016,1.016,0,0,0,.04.378v14.577Zm11.337-19.473-.934,5v.005a3.134,3.134,0,0,0-.051.379l-.438,1.482a4.49,4.49,0,0,1-4.281,3.2,1.025,1.025,0,1,0,0,2.05,6.541,6.541,0,0,0,4.717-2.034,3.139,3.139,0,0,0,.819,1.916,3.143,3.143,0,0,0,.047,4.3,3.143,3.143,0,0,0-.585,3.177H110.6a6.356,6.356,0,0,1-3.751-1.216l-1.483-1.074v-12l1.8-.982a7.773,7.773,0,0,0,3.6-4.185l1.459-4.032A3.518,3.518,0,0,1,114.655,113.837Zm2.155,4.518h6.6a1.1,1.1,0,0,1,0,2.2h-6.6a1.1,1.1,0,1,1,0-2.2Zm5.563,14.955H116.9a1.1,1.1,0,1,1,0-2.2h5.472a1.1,1.1,0,1,1,0,2.2Zm1.039-4.251h-6.6a1.1,1.1,0,1,1,0-2.2h6.6a1.1,1.1,0,1,1,0,2.2Zm1.746-4.251H116.81a1.1,1.1,0,0,1,0-2.2h8.348a1.1,1.1,0,0,1,0,2.2Z" transform="translate(-95.366 -107.534)" fill="#333"/>
      </g>
    </g>
  </g>
</svg>
