<svg xmlns="http://www.w3.org/2000/svg" width="17" height="13" viewBox="0 0 17 13">
  <g id="Group_658" data-name="Group 658" transform="translate(-1194.8 -108)">
    <rect id="Rectangle_634" data-name="Rectangle 634" width="17" height="13" transform="translate(1194.8 108)" fill="rgba(255,255,255,0)"/>
    <g id="Path_485" data-name="Path 485" transform="translate(1198 110)" fill="none">
      <path d="M5.318-2c2.937,0,5.318,4.745,5.318,7.682A5.318,5.318,0,0,1,0,5.682C0,2.745,2.381-2,5.318-2Z" stroke="none"/>
      <path d="M 5.318181991577148 -1.000000953674316 C 4.360851764678955 -1.000000953674316 3.300032138824463 -0.1740207672119141 2.407721519470215 1.266159534454346 C 1.55256175994873 2.646379470825195 1.000001907348633 4.379629611968994 1.000001907348633 5.681819438934326 C 1.000001907348633 8.062870025634766 2.937131881713867 10 5.318181991577148 10 C 7.69923210144043 10 9.636362075805664 8.062870025634766 9.636362075805664 5.681819438934326 C 9.636362075805664 4.379629611968994 9.083802223205566 2.646379470825195 8.228641510009766 1.266159534454346 C 7.336332321166992 -0.1740207672119141 6.275512218475342 -1.000000953674316 5.318181991577148 -1.000000953674316 M 5.318181991577148 -2.000000953674316 C 8.255331993103027 -2.000000953674316 10.63636207580566 2.744669437408447 10.63636207580566 5.681819438934326 C 10.63636207580566 8.618969917297363 8.255331993103027 11 5.318181991577148 11 C 2.38103199005127 11 1.9073486328125e-06 8.618969917297363 1.9073486328125e-06 5.681819438934326 C 1.9073486328125e-06 2.744669437408447 2.38103199005127 -2.000000953674316 5.318181991577148 -2.000000953674316 Z" stroke="none" fill="red"/>
    </g>
  </g>
</svg>
