<svg xmlns="http://www.w3.org/2000/svg" width="52.5" height="42" viewBox="0 0 52.5 42">
  <g id="pay" transform="translate(0 -48)">
    <g id="Group_636" data-name="Group 636" transform="translate(0 48)">
      <g id="Group_635" data-name="Group 635">
        <path id="Path_489" data-name="Path 489" d="M51.625,48H35a.875.875,0,0,0-.875.875V51.5H31.5a.875.875,0,0,0-.875.875v9.959L24.293,65.5H.875A.875.875,0,0,0,0,66.375v22.75A.875.875,0,0,0,.875,90h17.5a.875.875,0,0,0,.875-.875V86.657l9.481,1.58a.9.9,0,0,0,.144.012H42a3.489,3.489,0,0,0,3.014-1.75h3.111A.875.875,0,0,0,49,85.625V83h2.625a.875.875,0,0,0,.875-.875V48.875A.875.875,0,0,0,51.625,48ZM17.5,88.25H1.75v-21H17.5Zm18.375-38.5H50.75V68.9A3.478,3.478,0,0,0,49,65.985V52.375a.875.875,0,0,0-.875-.875H35.875Zm-3.5,3.5H47.25V65.5H45.5V57.625a.875.875,0,0,0-.875-.875.875.875,0,0,1-.875-.875A.875.875,0,0,0,42.875,55H36.75a.875.875,0,0,0-.875.875A.875.875,0,0,1,35,56.75a.875.875,0,0,0-.875.875V65.5h-1.75Zm11.375,5.1V65.5H35.875V58.35a2.639,2.639,0,0,0,1.6-1.6H42.15A2.639,2.639,0,0,0,43.75,58.35Zm3.5,26.4H45.5a3.485,3.485,0,0,0-.592-1.947,3.5,3.5,0,0,0,1.75-5.25,3.429,3.429,0,0,0,.592-.281Zm0-14h-3.5a.875.875,0,0,0,0,1.75H45.5a1.75,1.75,0,0,1,0,3.5H42a.875.875,0,0,0,0,1.75h1.75a1.75,1.75,0,1,1,0,3.5h-3.5a.875.875,0,1,0,0,1.75H42a1.75,1.75,0,0,1,0,3.5H28.948l-9.7-1.616V67.25H24.5a.875.875,0,0,0,.391-.092l5.734-2.867v2.084a.875.875,0,0,0,.875.875H47.25a1.75,1.75,0,0,1,0,3.5ZM49,81.25V72.022a3.475,3.475,0,0,0,1.75-2.914V81.25Z" transform="translate(0 -48)" fill="#333"/>
      </g>
    </g>
    <g id="Group_638" data-name="Group 638" transform="translate(8.75 79.5)">
      <g id="Group_637" data-name="Group 637">
        <path id="Path_490" data-name="Path 490" d="M83.5,336a3.5,3.5,0,1,0,3.5,3.5A3.5,3.5,0,0,0,83.5,336Zm0,5.25a1.75,1.75,0,1,1,1.75-1.75A1.75,1.75,0,0,1,83.5,341.25Z" transform="translate(-80 -336)" fill="#333"/>
      </g>
    </g>
  </g>
</svg>
