<svg id="_984156528" xmlns="http://www.w3.org/2000/svg" width="13.728" height="16" viewBox="0 0 13.728 16">
  <path id="Path_479" data-name="Path 479" d="M127.814,34.783l.023,1.173.034-.056a9.787,9.787,0,0,1,.789-.823,2.808,2.808,0,0,1,.665-.507,4.028,4.028,0,0,1,.947-.09c1.24,0,3.935-.068,4.939-1.342a4.259,4.259,0,0,0,.733-1.815,11.591,11.591,0,0,0,.113-2.92,6.213,6.213,0,0,0-.541-2.3,2.769,2.769,0,0,0-1.331-1.218,10.613,10.613,0,0,0-3.822-.631,8.055,8.055,0,0,0-3.552.7,5.347,5.347,0,0,0-.823.507,3.3,3.3,0,0,0-.575.733,8.213,8.213,0,0,0-.541,3.856,5.406,5.406,0,0,0,.879,3.089c.09.09.2.214.327.338a1.808,1.808,0,0,1,.361.237,4.232,4.232,0,0,1,.462.214,5.381,5.381,0,0,1,.631.3l.282.18v.372ZM126.6,37.444v-2.3l-.248-.09c-.18-.09-.327-.18-.507-.271a2.8,2.8,0,0,1-.552-.372,3.4,3.4,0,0,1-.451-.451,6.286,6.286,0,0,1-1.218-3.822,9.721,9.721,0,0,1,.733-4.589,4.478,4.478,0,0,1,.812-.992,4.874,4.874,0,0,1,1.094-.733,9.693,9.693,0,0,1,4.1-.823,11.317,11.317,0,0,1,4.307.767,3.688,3.688,0,0,1,1.939,1.759,6.907,6.907,0,0,1,.665,2.763,11.692,11.692,0,0,1-.124,3.247,5.536,5.536,0,0,1-.97,2.39c-1.364,1.736-4.454,1.759-5.908,1.793h-.5a1.9,1.9,0,0,1-.271.237c-.271.282-.575.609-.7.733-.237.3-.541.575-.789.846a2.522,2.522,0,0,1-.361.338L126.6,39V37.444Z" transform="translate(-123.604 -23)" fill="#8c56b8"/>
  <path id="Path_480" data-name="Path 480" d="M366.859,272.5a1.425,1.425,0,0,0-1.15,1.026,2.545,2.545,0,0,0,.395,1.7,9.85,9.85,0,0,0,1.759,2.548,10.736,10.736,0,0,0,3.89,2.582,1.548,1.548,0,0,0,1.455-.643c.7-.913.214-1.184-.7-1.849-.643-.451-1.15-.846-1.736,0-.451.643-1.387-.147-1.782-.451s-1.342-1.466-.97-2.041c.327-.541,1.274-.327.056-2-.271-.428-.7-1-1.218-.879Z" transform="translate(-362.931 -269.666)" fill="#8c56b8" fill-rule="evenodd"/>
  <path id="Path_481" data-name="Path 481" d="M710.078,263.532a5.522,5.522,0,0,0,.812.18,5.082,5.082,0,0,1,.767.237c1.4.575,1.793,1.7,1.906,3.1.034.361.428.361.428-.09a3.725,3.725,0,0,0-3.281-3.732c-.327-.034-.755-.124-.631.3Z" transform="translate(-703.444 -260.487)" fill="#8c56b8" fill-rule="evenodd"/>
  <path id="Path_482" data-name="Path 482" d="M737.167,350.041c.519.214.485-.913-.214-1.815-.6-.789-2.3-1.274-2.12-.643.056.248.789.09,1.488.575C737.167,348.767,736.93,349.8,737.167,350.041Z" transform="translate(-727.928 -343.637)" fill="#8c56b8" fill-rule="evenodd"/>
  <path id="Path_483" data-name="Path 483" d="M759.662,433.3c.271.124.733.056.947.541a2.881,2.881,0,0,0,.18.552c.147.2.361,0,.327-.282-.023-.992-1.545-1.6-1.455-.812Z" transform="translate(-752.486 -428.321)" fill="#8c56b8" fill-rule="evenodd"/>
</svg>
